{
	"accessors" : 
	[
		{
			"bufferView" : 2,
			"byteOffset" : 0,
			"componentType" : 5126,
			"count" : 10650,
			"max" : 
			[
				1,
				0.835527777671814,
				0.03994716703891754,
				1
			],
			"min" : 
			[
				0.006584956776350737,
				0.006584956776350737,
				0.006584956776350737,
				1
			],
			"name" : "accessor_color_m0-PolyPaper12_-92346",
			"type" : "VEC4"
		},
		{
			"bufferView" : 2,
			"byteOffset" : 170400,
			"componentType" : 5126,
			"count" : 6600,
			"max" : 
			[
				1,
				1,
				1,
				1
			],
			"min" : 
			[
				1,
				1,
				1,
				1
			],
			"name" : "accessor_color_m1-PolyGlass24_-92352",
			"type" : "VEC4"
		},
		{
			"bufferView" : 0,
			"byteOffset" : 0,
			"componentType" : 5123,
			"count" : 16386,
			"max" : 
			[
				10649
			],
			"min" : 
			[
				0
			],
			"name" : "accessor_indices_0_m0-PolyPaper12_-92346",
			"type" : "SCALAR"
		},
		{
			"bufferView" : 0,
			"byteOffset" : 32772,
			"componentType" : 5123,
			"count" : 10944,
			"max" : 
			[
				6599
			],
			"min" : 
			[
				0
			],
			"name" : "accessor_indices_0_m1-PolyGlass24_-92352",
			"type" : "SCALAR"
		},
		{
			"bufferView" : 1,
			"byteOffset" : 127800,
			"componentType" : 5126,
			"count" : 10650,
			"max" : 
			[
				0.9878491,
				0.9930533,
				0.9806767
			],
			"min" : 
			[
				-1,
				-0.9837435,
				-0.9806767
			],
			"name" : "accessor_normal_m0-PolyPaper12_-92346",
			"type" : "VEC3"
		},
		{
			"bufferView" : 1,
			"byteOffset" : 334800,
			"componentType" : 5126,
			"count" : 6600,
			"max" : 
			[
				0.9986162,
				0.9703264,
				0.9985619
			],
			"min" : 
			[
				-0.9985398,
				-0.968012,
				-0.9983978
			],
			"name" : "accessor_normal_m1-PolyGlass24_-92352",
			"type" : "VEC3"
		},
		{
			"bufferView" : 1,
			"byteOffset" : 0,
			"componentType" : 5126,
			"count" : 10650,
			"max" : 
			[
				0.8000308,
				2.603375,
				0.7837045
			],
			"min" : 
			[
				-0.8950283,
				1.443626,
				-0.8903367
			],
			"name" : "accessor_position_m0-PolyPaper12_-92346",
			"type" : "VEC3"
		},
		{
			"bufferView" : 1,
			"byteOffset" : 255600,
			"componentType" : 5126,
			"count" : 6600,
			"max" : 
			[
				0.168698,
				2.603375,
				0.7837045
			],
			"min" : 
			[
				-0.1208413,
				2.120282,
				-0.8903367
			],
			"name" : "accessor_position_m1-PolyGlass24_-92352",
			"type" : "VEC3"
		}
	],
	"asset" : 
	{
		"copyright" : "Unknown",
		"generator" : "glTF 1-to-2 Upgrader for Google Blocks",
		"version" : "2.0"
	},
	"bufferViews" : 
	[
		{
			"buffer" : 0,
			"byteLength" : 54660,
			"byteOffset" : 0,
			"name" : "ushortBufferView",
			"target" : 34963
		},
		{
			"buffer" : 0,
			"byteLength" : 414000,
			"byteOffset" : 54660,
			"byteStride" : 12,
			"name" : "vec3BufferView",
			"target" : 34962
		},
		{
			"buffer" : 0,
			"byteLength" : 276000,
			"byteOffset" : 468660,
			"byteStride" : 16,
			"name" : "vec4BufferView",
			"target" : 34962
		}
	],
	"buffers" : 
	[
		{
			"byteLength" : 744660,
			"name" : "model",
			"uri" : "model.bin"
		}
	],
	"materials" : 
	[
		{
			"alphaMode" : "OPAQUE",
			"doubleSided" : false,
			"name" : "BlocksPaper",
			"pbrMetallicRoughness" : 
			{
				"baseColorFactor" : 
				[
					1,
					1,
					1,
					1
				],
				"metallicFactor" : 0,
				"roughnessFactor" : 0.6
			}
		},
		{
			"alphaMode" : "BLEND",
			"doubleSided" : false,
			"name" : "BlocksGlass",
			"pbrMetallicRoughness" : 
			{
				"baseColorFactor" : 
				[
					0.2,
					0.2,
					1,
					0.3
				],
				"metallicFactor" : 1,
				"roughnessFactor" : 0.4
			}
		},
		{
			"alphaMode" : "OPAQUE",
			"doubleSided" : true,
			"name" : "BlocksGem",
			"pbrMetallicRoughness" : 
			{
				"baseColorFactor" : 
				[
					1,
					0.4,
					1,
					1
				],
				"metallicFactor" : 0,
				"roughnessFactor" : 0.1
			}
		}
	],
	"meshes" : 
	[
		{
			"name" : "mesh_m0-PolyPaper12_-92346",
			"primitives" : 
			[
				{
					"attributes" : 
					{
						"COLOR_0" : 0,
						"NORMAL" : 4,
						"POSITION" : 6
					},
					"indices" : 2,
					"material" : 0,
					"mode" : 4
				}
			]
		},
		{
			"name" : "mesh_m1-PolyGlass24_-92352",
			"primitives" : 
			[
				{
					"attributes" : 
					{
						"COLOR_0" : 1,
						"NORMAL" : 5,
						"POSITION" : 7
					},
					"indices" : 3,
					"material" : 1,
					"mode" : 4
				}
			]
		}
	],
	"nodes" : 
	[
		{
			"matrix" : 
			[
				1,
				0,
				0,
				0,
				0,
				1,
				0,
				0,
				0,
				0,
				1,
				0,
				0,
				0,
				0,
				1
			],
			"mesh" : 0,
			"name" : "node_MeshObject-883152896-PolyPaper12"
		},
		{
			"matrix" : 
			[
				1,
				0,
				0,
				0,
				0,
				1,
				0,
				0,
				0,
				0,
				1,
				0,
				0,
				0,
				0,
				1
			],
			"mesh" : 1,
			"name" : "node_MeshObject383204352-PolyGlass24"
		}
	],
	"scene" : 0,
	"scenes" : 
	[
		{
			"extras" : {},
			"name" : "defaultScene",
			"nodes" : 
			[
				0,
				1
			]
		}
	]
}