{
	"accessors" : 
	[
		{
			"bufferView" : 2,
			"byteOffset" : 0,
			"componentType" : 5126,
			"count" : 4056,
			"max" : 
			[
				1,
				1,
				1,
				1
			],
			"min" : 
			[
				0.006584956776350737,
				0.006584956776350737,
				0.006584956776350737,
				1
			],
			"name" : "accessor_color_m0-PolyPaper23_-353674",
			"type" : "VEC4"
		},
		{
			"bufferView" : 2,
			"byteOffset" : 64896,
			"componentType" : 5126,
			"count" : 9898,
			"max" : 
			[
				1,
				0.835527777671814,
				0.7893137335777283,
				1
			],
			"min" : 
			[
				0,
				0.006584956776350737,
				0.006584956776350737,
				1
			],
			"name" : "accessor_color_m1-PolyPaper23_-352238",
			"type" : "VEC4"
		},
		{
			"bufferView" : 2,
			"byteOffset" : 223264,
			"componentType" : 5126,
			"count" : 504,
			"max" : 
			[
				1,
				1,
				1,
				1
			],
			"min" : 
			[
				1,
				1,
				1,
				1
			],
			"name" : "accessor_color_m2-PolyGem25_-337278",
			"type" : "VEC4"
		},
		{
			"bufferView" : 0,
			"byteOffset" : 0,
			"componentType" : 5123,
			"count" : 6072,
			"max" : 
			[
				4055
			],
			"min" : 
			[
				0
			],
			"name" : "accessor_indices_0_m0-PolyPaper23_-353674",
			"type" : "SCALAR"
		},
		{
			"bufferView" : 0,
			"byteOffset" : 12144,
			"componentType" : 5123,
			"count" : 14634,
			"max" : 
			[
				9897
			],
			"min" : 
			[
				0
			],
			"name" : "accessor_indices_0_m1-PolyPaper23_-352238",
			"type" : "SCALAR"
		},
		{
			"bufferView" : 0,
			"byteOffset" : 41412,
			"componentType" : 5123,
			"count" : 720,
			"max" : 
			[
				503
			],
			"min" : 
			[
				0
			],
			"name" : "accessor_indices_0_m2-PolyGem25_-337278",
			"type" : "SCALAR"
		},
		{
			"bufferView" : 1,
			"byteOffset" : 48672,
			"componentType" : 5126,
			"count" : 4056,
			"max" : 
			[
				0.9943206999999999,
				0.9998297,
				0.9978384
			],
			"min" : 
			[
				-0.9948199,
				-0.9998297,
				-0.9986625
			],
			"name" : "accessor_normal_m0-PolyPaper23_-353674",
			"type" : "VEC3"
		},
		{
			"bufferView" : 1,
			"byteOffset" : 216120,
			"componentType" : 5126,
			"count" : 9898,
			"max" : 
			[
				1,
				1,
				1
			],
			"min" : 
			[
				-1,
				-1,
				-1
			],
			"name" : "accessor_normal_m1-PolyPaper23_-352238",
			"type" : "VEC3"
		},
		{
			"bufferView" : 1,
			"byteOffset" : 340944,
			"componentType" : 5126,
			"count" : 504,
			"max" : 
			[
				1,
				1,
				1
			],
			"min" : 
			[
				-1,
				-1,
				-1
			],
			"name" : "accessor_normal_m2-PolyGem25_-337278",
			"type" : "VEC3"
		},
		{
			"bufferView" : 1,
			"byteOffset" : 0,
			"componentType" : 5126,
			"count" : 4056,
			"max" : 
			[
				2.050672,
				1.652556,
				2.489047
			],
			"min" : 
			[
				0.2304399,
				0.03255388,
				1.272488
			],
			"name" : "accessor_position_m0-PolyPaper23_-353674",
			"type" : "VEC3"
		},
		{
			"bufferView" : 1,
			"byteOffset" : 97344,
			"componentType" : 5126,
			"count" : 9898,
			"max" : 
			[
				3.260899,
				4.084529,
				3.647276
			],
			"min" : 
			[
				-1.210339,
				-2.370031,
				-0.9564922
			],
			"name" : "accessor_position_m1-PolyPaper23_-352238",
			"type" : "VEC3"
		},
		{
			"bufferView" : 1,
			"byteOffset" : 334896,
			"componentType" : 5126,
			"count" : 504,
			"max" : 
			[
				2.860034,
				3.169837,
				3.030005
			],
			"min" : 
			[
				-0.729975,
				-2.360001,
				-0.55999
			],
			"name" : "accessor_position_m2-PolyGem25_-337278",
			"type" : "VEC3"
		}
	],
	"asset" : 
	{
		"copyright" : "Unknown",
		"generator" : "glTF 1-to-2 Upgrader for Google Blocks",
		"version" : "2.0"
	},
	"bufferViews" : 
	[
		{
			"buffer" : 0,
			"byteLength" : 42852,
			"byteOffset" : 0,
			"name" : "ushortBufferView",
			"target" : 34963
		},
		{
			"buffer" : 0,
			"byteLength" : 346992,
			"byteOffset" : 42852,
			"byteStride" : 12,
			"name" : "vec3BufferView",
			"target" : 34962
		},
		{
			"buffer" : 0,
			"byteLength" : 231328,
			"byteOffset" : 389844,
			"byteStride" : 16,
			"name" : "vec4BufferView",
			"target" : 34962
		}
	],
	"buffers" : 
	[
		{
			"byteLength" : 621172,
			"name" : "model",
			"uri" : "model.bin"
		}
	],
	"materials" : 
	[
		{
			"alphaMode" : "OPAQUE",
			"doubleSided" : false,
			"name" : "BlocksPaper",
			"pbrMetallicRoughness" : 
			{
				"baseColorFactor" : 
				[
					1,
					1,
					1,
					1
				],
				"metallicFactor" : 0,
				"roughnessFactor" : 0.6
			}
		},
		{
			"alphaMode" : "BLEND",
			"doubleSided" : false,
			"name" : "BlocksGlass",
			"pbrMetallicRoughness" : 
			{
				"baseColorFactor" : 
				[
					0.2,
					0.2,
					1,
					0.3
				],
				"metallicFactor" : 1,
				"roughnessFactor" : 0.4
			}
		},
		{
			"alphaMode" : "OPAQUE",
			"doubleSided" : true,
			"name" : "BlocksGem",
			"pbrMetallicRoughness" : 
			{
				"baseColorFactor" : 
				[
					1,
					0.4,
					1,
					1
				],
				"metallicFactor" : 0,
				"roughnessFactor" : 0.1
			}
		}
	],
	"meshes" : 
	[
		{
			"name" : "mesh_m0-PolyPaper23_-353674",
			"primitives" : 
			[
				{
					"attributes" : 
					{
						"COLOR_0" : 0,
						"NORMAL" : 6,
						"POSITION" : 9
					},
					"indices" : 3,
					"material" : 0,
					"mode" : 4
				}
			]
		},
		{
			"name" : "mesh_m1-PolyPaper23_-352238",
			"primitives" : 
			[
				{
					"attributes" : 
					{
						"COLOR_0" : 1,
						"NORMAL" : 7,
						"POSITION" : 10
					},
					"indices" : 4,
					"material" : 0,
					"mode" : 4
				}
			]
		},
		{
			"name" : "mesh_m2-PolyGem25_-337278",
			"primitives" : 
			[
				{
					"attributes" : 
					{
						"COLOR_0" : 2,
						"NORMAL" : 8,
						"POSITION" : 11
					},
					"indices" : 5,
					"material" : 2,
					"mode" : 4
				}
			]
		}
	],
	"nodes" : 
	[
		{
			"matrix" : 
			[
				1,
				0,
				0,
				0,
				0,
				1,
				0,
				0,
				0,
				0,
				1,
				0,
				0,
				0,
				0,
				1
			],
			"mesh" : 0,
			"name" : "node_MeshObject-1768710656-PolyPaper23"
		},
		{
			"matrix" : 
			[
				1,
				0,
				0,
				0,
				0,
				1,
				0,
				0,
				0,
				0,
				1,
				0,
				0,
				0,
				0,
				1
			],
			"mesh" : 2,
			"name" : "node_MeshObject1402036416-PolyGem25"
		},
		{
			"matrix" : 
			[
				1,
				0,
				0,
				0,
				0,
				1,
				0,
				0,
				0,
				0,
				1,
				0,
				0,
				0,
				0,
				1
			],
			"mesh" : 1,
			"name" : "node_MeshObject1485136128-PolyPaper23"
		}
	],
	"scene" : 0,
	"scenes" : 
	[
		{
			"extras" : {},
			"name" : "defaultScene",
			"nodes" : 
			[
				0,
				2,
				1
			]
		}
	]
}